<mxfile host="Electron" agent="Mozilla/5.0 (Windows NT 10.0; Win64; x64) AppleWebKit/537.36 (KHTML, like Gecko) draw.io/26.0.4 Chrome/128.0.6613.186 Electron/32.2.5 Safari/537.36" version="26.0.4">
  <diagram name="Page-1" id="r2_2YA5K_IkCOgmWWGXc">
    <mxGraphModel dx="296" dy="174" grid="1" gridSize="10" guides="1" tooltips="1" connect="1" arrows="1" fold="1" page="1" pageScale="1" pageWidth="827" pageHeight="1169" math="0" shadow="0">
      <root>
        <mxCell id="0" />
        <mxCell id="1" parent="0" />
        <mxCell id="kZnphsI6zPI48kDzl5fM-2" value="" style="whiteSpace=wrap;html=1;aspect=fixed;fillColor=#f5f5f5;strokeColor=#666666;fontColor=#333333;" parent="1" vertex="1">
          <mxGeometry x="195" y="140" width="130" height="130" as="geometry" />
        </mxCell>
        <mxCell id="kZnphsI6zPI48kDzl5fM-1" value="Benutzer" style="shape=umlActor;verticalLabelPosition=bottom;verticalAlign=top;html=1;outlineConnect=0;" parent="1" vertex="1">
          <mxGeometry x="245" y="150" width="30" height="60" as="geometry" />
        </mxCell>
        <mxCell id="kZnphsI6zPI48kDzl5fM-6" style="edgeStyle=orthogonalEdgeStyle;rounded=0;orthogonalLoop=1;jettySize=auto;html=1;exitX=0.5;exitY=0;exitDx=0;exitDy=0;" parent="1" edge="1">
          <mxGeometry relative="1" as="geometry">
            <mxPoint x="260" y="240" as="targetPoint" />
            <mxPoint x="260" y="240" as="sourcePoint" />
          </mxGeometry>
        </mxCell>
        <mxCell id="kZnphsI6zPI48kDzl5fM-8" value="" style="endArrow=none;dashed=1;html=1;dashPattern=1 3;strokeWidth=2;rounded=0;exitX=0.5;exitY=0;exitDx=0;exitDy=0;" parent="1" edge="1" source="4pukfur7Fkz4aeUhOezn-5">
          <mxGeometry width="50" height="50" relative="1" as="geometry">
            <mxPoint x="260" y="340" as="sourcePoint" />
            <mxPoint x="260" y="270" as="targetPoint" />
          </mxGeometry>
        </mxCell>
        <mxCell id="kZnphsI6zPI48kDzl5fM-25" value="Will Hautläsion scannen" style="edgeLabel;html=1;align=center;verticalAlign=middle;resizable=0;points=[];" parent="kZnphsI6zPI48kDzl5fM-8" vertex="1" connectable="0">
          <mxGeometry x="-0.16" y="-1" relative="1" as="geometry">
            <mxPoint as="offset" />
          </mxGeometry>
        </mxCell>
        <mxCell id="4pukfur7Fkz4aeUhOezn-5" value="&lt;font size=&quot;1&quot;&gt;&lt;br&gt;&lt;br&gt;Stellt Verbindung zur KI her&lt;br&gt;und gibt die Möglichkeit zur&amp;nbsp;&lt;br&gt;Früherkennung&lt;/font&gt;" style="rounded=0;whiteSpace=wrap;html=1;" vertex="1" parent="1">
          <mxGeometry x="281.5" y="360" width="132.5" height="80" as="geometry" />
        </mxCell>
        <mxCell id="4pukfur7Fkz4aeUhOezn-3" value="&lt;font style=&quot;font-size: 12px;&quot;&gt;Mobile App&lt;/font&gt;" style="text;html=1;align=center;verticalAlign=middle;whiteSpace=wrap;rounded=0;fontSize=9;" vertex="1" parent="1">
          <mxGeometry x="305.25" y="360" width="85" height="30" as="geometry" />
        </mxCell>
        <mxCell id="4pukfur7Fkz4aeUhOezn-4" value="&lt;font style=&quot;font-size: 8px;&quot;&gt;[Container: Android-Studio}&lt;/font&gt;" style="text;html=1;align=center;verticalAlign=middle;whiteSpace=wrap;rounded=0;" vertex="1" parent="1">
          <mxGeometry x="244.75" y="380" width="215.25" height="10" as="geometry" />
        </mxCell>
        <mxCell id="4pukfur7Fkz4aeUhOezn-6" value="" style="rounded=0;whiteSpace=wrap;html=1;" vertex="1" parent="1">
          <mxGeometry x="100" y="360" width="140" height="80" as="geometry" />
        </mxCell>
        <mxCell id="4pukfur7Fkz4aeUhOezn-7" value="&lt;font size=&quot;1&quot;&gt;Desktop Anwendung&lt;/font&gt;" style="text;html=1;align=center;verticalAlign=middle;whiteSpace=wrap;rounded=0;fontSize=9;" vertex="1" parent="1">
          <mxGeometry x="100" y="360" width="140" height="30" as="geometry" />
        </mxCell>
      </root>
    </mxGraphModel>
  </diagram>
</mxfile>
